{"asset":{"version":"2.0","generator":"VECTARY"},"nodes":[{"translation":[-0.0067179273943521025,0.43771304843960757,0.015449084452510305],"scale":[0.00007915827374702333,0.00007915827374702333,0.00007915827374702333],"rotation":[-0.7071067811865475,0,0,0.7071067811865476],"name":"Sphere","mesh":0},{"translation":[-0.11819312959437993,0.023469632815869317,5.3290705182007515e-18],"scale":[0.2547302276443518,0.2547302276443518,0.2547302276443518],"rotation":[1.1102230246251565e-16,4.163336342344337e-17,-0.17248141608370632,0.9850127720520986],"name":"Object_0","mesh":1},{"translation":[0.003138429641723633,0.3646792297363282,-0.06686090850830076],"scale":[0.001,0.001,0.001],"rotation":[-0.7071067811865475,0,0,0.7071067811865476],"name":"Merged Objects 2","mesh":2},{"translation":[-0.11819312959437993,0.023469632815869317,5.3290705182007515e-18],"scale":[0.2547302276443518,0.2547302276443518,0.2547302276443518],"rotation":[1.1102230246251565e-16,4.163336342344337e-17,-0.17248141608370632,0.9850127720520986],"name":"Object_18","mesh":3},{"translation":[0,-0.0001528381438460362,-2.7755575615628914e-20],"scale":[0.2547302276443518,0.2547302276443518,0.2547302276443518],"rotation":[0,0,0,1],"name":"Object_8","mesh":4},{"translation":[0,-0.0001528381438460362,-2.7755575615628914e-20],"scale":[0.2547302276443518,0.2547302276443518,0.2547302276443518],"rotation":[0,0,0,1],"name":"Object_9","mesh":5},{"translation":[0,-0.0001528381438460362,-2.7755575615628914e-20],"scale":[0.2547302276443518,0.2547302276443518,0.2547302276443518],"rotation":[0,0,0,1],"name":"Object_10","mesh":6},{"translation":[0,-0.0001528381438460362,-2.7755575615628914e-20],"scale":[0.2547302276443518,0.2547302276443518,0.2547302276443518],"rotation":[0,0,0,1],"name":"Object_12","mesh":7},{"translation":[0,-0.0001528381438460362,-2.7755575615628914e-20],"scale":[0.2547302276443518,0.2547302276443518,0.2547302276443518],"rotation":[0,0,0,1],"name":"Object_13","mesh":8},{"translation":[0,-0.0001528381438460362,-2.7755575615628914e-20],"scale":[0.2547302276443518,0.2547302276443518,0.2547302276443518],"rotation":[0,0,0,1],"name":"Object_16","mesh":9},{"translation":[0,-0.0001528381438460362,-2.7755575615628914e-20],"scale":[0.2547302276443518,0.2547302276443518,0.2547302276443518],"rotation":[0,0,0,1],"name":"Object_17","mesh":10},{"translation":[0,-0.0001528381438460362,-2.7755575615628914e-20],"scale":[0.2547302276443518,0.2547302276443518,0.2547302276443518],"rotation":[0,0,0,1],"name":"Object_22","mesh":11},{"translation":[-0.005700092799031971,0.029199083643946567,-0.04581233500121613],"scale":[0.2450746354750416,0.2450746354750418,0.24507463547504169],"rotation":[0.04533996256009276,0.01709798448353463,-0.005396624403959484,0.9988107043713002],"name":"15_-_MESH_head_rai_head_0","mesh":12},{"translation":[-0.005700092799031971,0.029199083643946567,-0.04581233500121613],"scale":[0.2450746354750416,0.2450746354750418,0.24507463547504169],"rotation":[0.04533996256009276,0.01709798448353463,-0.005396624403959484,0.9988107043713002],"name":"16_-_MESH_head_Hair_0 1","mesh":13},{"translation":[-0.005700092799031971,0.029199083643946567,-0.04581233500121613],"scale":[0.2450746354750416,0.2450746354750418,0.24507463547504169],"rotation":[0.04533996256009276,0.01709798448353463,-0.005396624403959484,0.9988107043713002],"name":"16_-_MESH_head_Hair_0","mesh":14},{"translation":[-0.005700092799031971,0.029199083643946567,-0.04581233500121613],"scale":[0.2450746354750416,0.2450746354750418,0.24507463547504169],"rotation":[0.04533996256009276,0.01709798448353463,-0.005396624403959484,0.9988107043713002],"name":"18_-_MESH_head_rai_jaw_0","mesh":15},{"translation":[-0.005700092799031971,0.029199083643946567,-0.04581233500121613],"scale":[0.2450746354750416,0.2450746354750418,0.24507463547504169],"rotation":[0.04533996256009276,0.01709798448353463,-0.005396624403959484,0.9988107043713002],"name":"19_-_MESH_Visor_Mask_0","mesh":16},{"translation":[-0.005700092799031971,0.029199083643946567,-0.04581233500121613],"scale":[0.2450746354750416,0.2450746354750418,0.24507463547504169],"rotation":[0.04533996256009276,0.01709798448353463,-0.005396624403959484,0.9988107043713002],"name":"20_-_MESH_Visor_rai_decal_0","mesh":17},{"translation":[-0.03721417275842872,0.4013313159385377,-0.0602918314173964],"scale":[0.001,0.001,0.001],"rotation":[-0.2857716507602989,0.9516912466894643,0.0581154888317702,0.09612972773409703],"name":"Merged Objects 1","mesh":18}],"materials":[{"pbrMetallicRoughness":{"baseColorFactor":[1,1,1,1],"baseColorTexture":{"index":0,"extensions":{"KHR_texture_transform":{"offset":[0.64,1.12],"scale":[2.5,1.2],"rotation":0}},"texCoord":0},"metallicFactor":0,"roughnessFactor":0.2},"name":"Avery","emissiveFactor":[0,0,0],"extensions":{},"alphaMode":"OPAQUE","doubleSided":false},{"pbrMetallicRoughness":{"baseColorFactor":[0,0,0,1],"baseColorTexture":{"index":1,"extensions":{"KHR_texture_transform":{"offset":[0,0],"scale":[1,-1],"rotation":0}},"texCoord":0},"metallicFactor":0,"roughnessFactor":0.2},"name":"Glossy Tint","emissiveTexture":{"index":2,"extensions":{"KHR_texture_transform":{"offset":[0,0],"scale":[1,-1],"rotation":0}},"texCoord":0},"emissiveFactor":[1,1,1],"extensions":{},"alphaMode":"BLEND","doubleSided":true},{"pbrMetallicRoughness":{"baseColorFactor":[1,1,1,1],"baseColorTexture":{"index":3,"extensions":{"KHR_texture_transform":{"offset":[0,0],"scale":[1,-1],"rotation":0}},"texCoord":0},"metallicFactor":0,"roughnessFactor":0.2},"name":"First Impression","normalTexture":{"index":4,"scale":1,"extensions":{"KHR_texture_transform":{"offset":[0,0],"scale":[1,-1],"rotation":0}},"texCoord":0},"emissiveFactor":[0,0,0],"extensions":{},"alphaMode":"OPAQUE","doubleSided":true},{"pbrMetallicRoughness":{"baseColorFactor":[1,1,1,1],"baseColorTexture":{"index":5,"extensions":{"KHR_texture_transform":{"offset":[0,0],"scale":[1,-1],"rotation":0}},"texCoord":0},"metallicRoughnessTexture":{"index":7,"extensions":{"KHR_texture_transform":{"offset":[0,0],"scale":[1,-1],"rotation":0}},"texCoord":0},"metallicFactor":1,"roughnessFactor":0.45},"name":"Union","normalTexture":{"index":6,"scale":1,"extensions":{"KHR_texture_transform":{"offset":[0,0],"scale":[1,-1],"rotation":0}},"texCoord":0},"emissiveFactor":[0,0,0],"extensions":{},"alphaMode":"OPAQUE","doubleSided":false},{"pbrMetallicRoughness":{"baseColorFactor":[1,1,1,1],"baseColorTexture":{"index":8,"extensions":{"KHR_texture_transform":{"offset":[0,0],"scale":[1,-1],"rotation":0}},"texCoord":0},"metallicRoughnessTexture":{"index":10,"extensions":{"KHR_texture_transform":{"offset":[0,0],"scale":[1,-1],"rotation":0}},"texCoord":0},"metallicFactor":1,"roughnessFactor":0.45},"name":"Beyond the Clouds","normalTexture":{"index":9,"scale":1,"extensions":{"KHR_texture_transform":{"offset":[0,0],"scale":[1,-1],"rotation":0}},"texCoord":0},"emissiveFactor":[0,0,0],"extensions":{},"alphaMode":"OPAQUE","doubleSided":true},{"pbrMetallicRoughness":{"baseColorFactor":[1,1,1,1],"baseColorTexture":{"index":8,"extensions":{"KHR_texture_transform":{"offset":[0,0],"scale":[1,-1],"rotation":0}},"texCoord":0},"metallicRoughnessTexture":{"index":10,"extensions":{"KHR_texture_transform":{"offset":[0,0],"scale":[1,-1],"rotation":0}},"texCoord":0},"metallicFactor":1,"roughnessFactor":0.45},"name":"Brooklyn","normalTexture":{"index":9,"scale":1,"extensions":{"KHR_texture_transform":{"offset":[0,0],"scale":[1,-1],"rotation":0}},"texCoord":0},"emissiveFactor":[0,0,0],"extensions":{},"alphaMode":"OPAQUE","doubleSided":true},{"pbrMetallicRoughness":{"baseColorFactor":[1,1,1,1],"baseColorTexture":{"index":8,"extensions":{"KHR_texture_transform":{"offset":[0,0],"scale":[1,-1],"rotation":0}},"texCoord":0},"metallicRoughnessTexture":{"index":10,"extensions":{"KHR_texture_transform":{"offset":[0,0],"scale":[1,-1],"rotation":0}},"texCoord":0},"metallicFactor":1,"roughnessFactor":0.45},"name":"Cosmic Aura","normalTexture":{"index":9,"scale":1,"extensions":{"KHR_texture_transform":{"offset":[0,0],"scale":[1,-1],"rotation":0}},"texCoord":0},"emissiveFactor":[0,0,0],"extensions":{},"alphaMode":"OPAQUE","doubleSided":false},{"pbrMetallicRoughness":{"baseColorFactor":[1,1,1,1],"baseColorTexture":{"index":5,"extensions":{"KHR_texture_transform":{"offset":[0,0],"scale":[1,-1],"rotation":0}},"texCoord":0},"metallicRoughnessTexture":{"index":13,"extensions":{"KHR_texture_transform":{"offset":[0,0],"scale":[1,-1],"rotation":0}},"texCoord":0},"metallicFactor":1,"roughnessFactor":0.45},"name":"Utah","normalTexture":{"index":11,"scale":1,"extensions":{"KHR_texture_transform":{"offset":[0,0],"scale":[1,-1],"rotation":0}},"texCoord":0},"emissiveFactor":[0,0,0],"extensions":{},"alphaMode":"OPAQUE","doubleSided":false},{"pbrMetallicRoughness":{"baseColorFactor":[1,1,1,1],"baseColorTexture":{"index":14,"extensions":{"KHR_texture_transform":{"offset":[0,0],"scale":[1,-1],"rotation":0}},"texCoord":0},"metallicRoughnessTexture":{"index":16,"extensions":{"KHR_texture_transform":{"offset":[0,0],"scale":[1,-1],"rotation":0}},"texCoord":0},"metallicFactor":1,"roughnessFactor":0.45},"name":"Rodeo","normalTexture":{"index":15,"scale":1,"extensions":{"KHR_texture_transform":{"offset":[0,0],"scale":[1,-1],"rotation":0}},"texCoord":0},"emissiveFactor":[0,0,0],"extensions":{},"alphaMode":"OPAQUE","doubleSided":false},{"pbrMetallicRoughness":{"baseColorFactor":[1,1,1,1],"baseColorTexture":{"index":17,"extensions":{"KHR_texture_transform":{"offset":[0,0],"scale":[1,-1],"rotation":0}},"texCoord":0},"metallicFactor":0.42,"roughnessFactor":0.45},"name":"Hero","normalTexture":{"index":18,"scale":1,"extensions":{"KHR_texture_transform":{"offset":[0,0],"scale":[1,-1],"rotation":0}},"texCoord":0},"emissiveFactor":[0,0,0],"extensions":{},"alphaMode":"OPAQUE","doubleSided":false},{"pbrMetallicRoughness":{"baseColorFactor":[1,1,1,1],"baseColorTexture":{"index":5,"extensions":{"KHR_texture_transform":{"offset":[0,0],"scale":[1,1],"rotation":0}},"texCoord":0},"metallicRoughnessTexture":{"index":13,"extensions":{"KHR_texture_transform":{"offset":[0,0],"scale":[1,1],"rotation":0}},"texCoord":0},"metallicFactor":1,"roughnessFactor":0.45},"name":"Barbarossa","normalTexture":{"index":11,"scale":1,"extensions":{"KHR_texture_transform":{"offset":[0,0],"scale":[1,1],"rotation":0}},"texCoord":0},"emissiveFactor":[0,0,0],"extensions":{},"alphaMode":"OPAQUE","doubleSided":false},{"pbrMetallicRoughness":{"baseColorFactor":[1,1,1,1],"baseColorTexture":{"index":19,"extensions":{"KHR_texture_transform":{"offset":[0,0],"scale":[1,1],"rotation":0}},"texCoord":0},"metallicFactor":0,"roughnessFactor":0.2},"name":"Cool Touch","emissiveFactor":[0,0,0],"extensions":{},"alphaMode":"BLEND","doubleSided":true},{"pbrMetallicRoughness":{"baseColorFactor":[1,1,1,1],"baseColorTexture":{"index":20,"extensions":{"KHR_texture_transform":{"offset":[0,0],"scale":[1,1],"rotation":0}},"texCoord":0},"metallicFactor":0,"roughnessFactor":1},"name":"rai_head","emissiveFactor":[0,0,0],"extensions":{},"alphaMode":"OPAQUE","doubleSided":true},{"pbrMetallicRoughness":{"baseColorFactor":[1,1,1,1],"baseColorTexture":{"index":21,"extensions":{"KHR_texture_transform":{"offset":[0,0],"scale":[1,1],"rotation":0}},"texCoord":0},"metallicFactor":0,"roughnessFactor":1},"name":"Hair 1","emissiveFactor":[0,0,0],"extensions":{},"alphaMode":"MASK","alphaCutoff":0.5,"doubleSided":true},{"pbrMetallicRoughness":{"baseColorFactor":[1,1,1,1],"baseColorTexture":{"index":21,"extensions":{"KHR_texture_transform":{"offset":[0,0],"scale":[1,1],"rotation":0}},"texCoord":0},"metallicFactor":0,"roughnessFactor":1},"name":"Hair","emissiveFactor":[0,0,0],"extensions":{},"alphaMode":"BLEND","doubleSided":true},{"pbrMetallicRoughness":{"baseColorFactor":[1,1,1,1],"baseColorTexture":{"index":5,"extensions":{"KHR_texture_transform":{"offset":[0,0],"scale":[1,1],"rotation":0}},"texCoord":0},"metallicFactor":0,"roughnessFactor":1},"name":"rai_jaw","emissiveFactor":[0,0,0],"extensions":{},"alphaMode":"OPAQUE","doubleSided":true},{"pbrMetallicRoughness":{"baseColorFactor":[1,1,1,1],"baseColorTexture":{"index":5,"extensions":{"KHR_texture_transform":{"offset":[0,0],"scale":[1,1],"rotation":0}},"texCoord":0},"metallicRoughnessTexture":{"index":13,"extensions":{"KHR_texture_transform":{"offset":[0,0],"scale":[1,1],"rotation":0}},"texCoord":0},"metallicFactor":1,"roughnessFactor":0.45},"name":"Mask","emissiveFactor":[0,0,0],"extensions":{},"alphaMode":"OPAQUE","doubleSided":true},{"pbrMetallicRoughness":{"baseColorFactor":[1,1,1,1],"baseColorTexture":{"index":22,"extensions":{"KHR_texture_transform":{"offset":[0,0],"scale":[1,1],"rotation":0}},"texCoord":0},"metallicFactor":0,"roughnessFactor":1},"name":"rai_decal","emissiveFactor":[0,0,0],"extensions":{},"alphaMode":"BLEND","doubleSided":true},{"pbrMetallicRoughness":{"baseColorFactor":[1,1,1,1],"baseColorTexture":{"index":23,"extensions":{"KHR_texture_transform":{"offset":[0,0],"scale":[1,-1],"rotation":0}},"texCoord":0},"metallicFactor":1,"roughnessFactor":0.45},"name":"Quiet Time 1","normalTexture":{"index":24,"scale":1,"extensions":{"KHR_texture_transform":{"offset":[0,0],"scale":[1,-1],"rotation":0}},"texCoord":0},"emissiveFactor":[0,0,0],"extensions":{},"alphaMode":"OPAQUE","doubleSided":true}],"textures":[{"sampler":0,"source":0},{"sampler":0,"source":1},{"sampler":0,"source":2},{"sampler":0,"source":3},{"sampler":0,"source":4},{"sampler":0,"source":5},{"sampler":0,"source":6},{"sampler":0,"source":7},{"sampler":0,"source":8},{"sampler":0,"source":9},{"sampler":0,"source":10},{"sampler":0,"source":11},{"sampler":0,"source":12},{"sampler":0,"source":13},{"sampler":0,"source":14},{"sampler":0,"source":15},{"sampler":0,"source":16},{"sampler":0,"source":17},{"sampler":0,"source":18},{"sampler":0,"source":19},{"sampler":0,"source":20},{"sampler":0,"source":21},{"sampler":0,"source":22},{"sampler":0,"source":23},{"sampler":0,"source":24}],"images":[{"uri":"Mask_baseColor.jpg","mimeType":"image/jpeg"},{"uri":"colorTexture&pl0110011out.png","mimeType":"image/png"},{"uri":"pl0110011out.png","mimeType":"image/png"},{"uri":"pl0110012out.jpg","mimeType":"image/jpeg"},{"uri":"pl0110013out.jpg","mimeType":"image/jpeg"},{"uri":"Mask_baseColor_1.jpg","mimeType":"image/jpeg"},{"uri":"pl1060019out.jpg","mimeType":"image/jpeg"},{"uri":"Screenshot_from_2023-02-02_16-03-56.png","mimeType":"image/png"},{"uri":"Body_baseColor.jpg","mimeType":"image/jpeg"},{"uri":"pl0110002.jpg","mimeType":"image/jpeg"},{"uri":"Body_baseColor1Body_baseColor1.png","mimeType":"image/png"},{"uri":"pl1060019out_1.jpg","mimeType":"image/jpeg"},{"uri":"Screenshot_from_2023-02-02_16-03-56_1.png","mimeType":"image/png"},{"uri":"Screenshot_from_2023-02-02_16-03-56_2.png","mimeType":"image/png"},{"uri":"Hands_baseColor.jpg","mimeType":"image/jpeg"},{"uri":"pl0110004out.jpg","mimeType":"image/jpeg"},{"uri":"Screenshot_from_2023-02-02_16-00-25&Screenshot_from_2023-02-02_16-00-25_1.jpg","mimeType":"image/jpeg"},{"uri":"pl0110007out.jpg","mimeType":"image/jpeg"},{"uri":"pl0110008out.jpg","mimeType":"image/jpeg"},{"uri":"rai_decal_baseColorpl0110006out&rai_decal_baseColorpl0110006out.png","mimeType":"image/png"},{"uri":"rai_head_baseColor.jpg","mimeType":"image/jpeg"},{"uri":"Hair_baseColorpl0110025out&Hair_baseColorpl0110025out.png","mimeType":"image/png"},{"uri":"rai_decal_baseColorpl0110006out&rai_decal_baseColorpl0110006out_1.png","mimeType":"image/png"},{"uri":"pl0110012out_1.jpg","mimeType":"image/jpeg"},{"uri":"pl0110013out_1.jpg","mimeType":"image/jpeg"}],"samplers":[{"wrapS":10497,"wrapT":10497}],"meshes":[{"primitives":[{"mode":4,"attributes":{"POSITION":1,"NORMAL":2,"TEXCOORD_0":3},"material":0,"indices":0}]},{"primitives":[{"mode":4,"attributes":{"POSITION":5,"NORMAL":6,"TEXCOORD_0":7},"material":1,"indices":4}]},{"primitives":[{"mode":4,"attributes":{"POSITION":9,"NORMAL":10,"TEXCOORD_0":11},"material":2,"indices":8}]},{"primitives":[{"mode":4,"attributes":{"POSITION":13,"NORMAL":14,"TEXCOORD_0":15},"material":3,"indices":12}]},{"primitives":[{"mode":4,"attributes":{"POSITION":17,"NORMAL":18,"TEXCOORD_0":19},"material":4,"indices":16}]},{"primitives":[{"mode":4,"attributes":{"POSITION":21,"NORMAL":22,"TEXCOORD_0":23},"material":5,"indices":20}]},{"primitives":[{"mode":4,"attributes":{"POSITION":25,"NORMAL":26,"TEXCOORD_0":27},"material":6,"indices":24}]},{"primitives":[{"mode":4,"attributes":{"POSITION":29,"NORMAL":30,"TEXCOORD_0":31},"material":7,"indices":28}]},{"primitives":[{"mode":4,"attributes":{"POSITION":33,"NORMAL":34,"TEXCOORD_0":35},"material":8,"indices":32}]},{"primitives":[{"mode":4,"attributes":{"POSITION":37,"NORMAL":38,"TEXCOORD_0":39},"material":9,"indices":36}]},{"primitives":[{"mode":4,"attributes":{"POSITION":41,"NORMAL":42,"TEXCOORD_0":43},"material":10,"indices":40}]},{"primitives":[{"mode":4,"attributes":{"POSITION":45,"NORMAL":46,"TEXCOORD_0":47},"material":11,"indices":44}]},{"primitives":[{"mode":4,"attributes":{"POSITION":49,"NORMAL":50,"TEXCOORD_0":51},"material":12,"indices":48}]},{"primitives":[{"mode":4,"attributes":{"POSITION":53,"NORMAL":54,"TEXCOORD_0":55},"material":13,"indices":52}]},{"primitives":[{"mode":4,"attributes":{"POSITION":57,"NORMAL":58,"TEXCOORD_0":59},"material":14,"indices":56}]},{"primitives":[{"mode":4,"attributes":{"POSITION":61,"NORMAL":62,"TEXCOORD_0":63},"material":15,"indices":60}]},{"primitives":[{"mode":4,"attributes":{"POSITION":65,"NORMAL":66,"TEXCOORD_0":67},"material":16,"indices":64}]},{"primitives":[{"mode":4,"attributes":{"POSITION":69,"NORMAL":70,"TEXCOORD_0":71},"material":17,"indices":68}]},{"primitives":[{"mode":4,"attributes":{"POSITION":73,"NORMAL":74,"TEXCOORD_0":75},"material":18,"indices":72}]}],"accessors":[{"bufferView":0,"byteOffset":0,"componentType":5125,"count":11904,"type":"SCALAR"},{"bufferView":1,"byteOffset":0,"componentType":5126,"count":2143,"max":[50,50,50],"min":[-50,-50,-50],"type":"VEC3"},{"bufferView":2,"byteOffset":0,"componentType":5126,"count":2143,"type":"VEC3"},{"bufferView":3,"byteOffset":0,"componentType":5126,"count":2143,"type":"VEC2"},{"bufferView":4,"byteOffset":0,"componentType":5125,"count":396,"type":"SCALAR"},{"bufferView":5,"byteOffset":0,"componentType":5126,"count":102,"max":[0.026520179584622383,1.4646061658859253,-0.23454011976718903],"min":[-0.22766852378845215,1.3792096376419067,-0.2812839150428772],"type":"VEC3"},{"bufferView":6,"byteOffset":0,"componentType":5126,"count":102,"type":"VEC3"},{"bufferView":7,"byteOffset":0,"componentType":5126,"count":102,"type":"VEC2"},{"bufferView":8,"byteOffset":0,"componentType":5125,"count":2793,"type":"SCALAR"},{"bufferView":9,"byteOffset":0,"componentType":5126,"count":940,"max":[24.317508697509766,5.336738586425781,67.57666015625],"min":[-24.317508697509766,-5.336738586425781,0],"type":"VEC3"},{"bufferView":10,"byteOffset":0,"componentType":5126,"count":940,"type":"VEC3"},{"bufferView":11,"byteOffset":0,"componentType":5126,"count":940,"type":"VEC2"},{"bufferView":12,"byteOffset":0,"componentType":5125,"count":2532,"type":"SCALAR"},{"bufferView":13,"byteOffset":0,"componentType":5126,"count":599,"max":[0.6419659852981567,1.5614020824432373,-0.2019789069890976],"min":[-0.22742745280265808,0.8292118310928345,-0.32600924372673035],"type":"VEC3"},{"bufferView":14,"byteOffset":0,"componentType":5126,"count":599,"type":"VEC3"},{"bufferView":15,"byteOffset":0,"componentType":5126,"count":599,"type":"VEC2"},{"bufferView":16,"byteOffset":0,"componentType":5125,"count":37200,"type":"SCALAR"},{"bufferView":17,"byteOffset":0,"componentType":5126,"count":7160,"max":[0.27489998936653137,1.6649999618530273,0.18870000541210175],"min":[-0.27489998936653137,0.011300000362098217,-0.15649999678134918],"type":"VEC3"},{"bufferView":18,"byteOffset":0,"componentType":5126,"count":7160,"type":"VEC3"},{"bufferView":19,"byteOffset":0,"componentType":5126,"count":7160,"type":"VEC2"},{"bufferView":20,"byteOffset":0,"componentType":5125,"count":20916,"type":"SCALAR"},{"bufferView":21,"byteOffset":0,"componentType":5126,"count":4028,"max":[0.75,1.7094999551773071,0.15559999644756317],"min":[-0.75,1.0326999425888062,-0.1703999936580658],"type":"VEC3"},{"bufferView":22,"byteOffset":0,"componentType":5126,"count":4028,"type":"VEC3"},{"bufferView":23,"byteOffset":0,"componentType":5126,"count":4028,"type":"VEC2"},{"bufferView":24,"byteOffset":0,"componentType":5125,"count":20448,"type":"SCALAR"},{"bufferView":25,"byteOffset":0,"componentType":5126,"count":3814,"max":[0.7448999881744385,1.7491999864578247,0.1485999971628189],"min":[-0.7454110980033875,0.0006000000284984708,-0.17139999568462372],"type":"VEC3"},{"bufferView":26,"byteOffset":0,"componentType":5126,"count":3814,"type":"VEC3"},{"bufferView":27,"byteOffset":0,"componentType":5126,"count":3814,"type":"VEC2"},{"bufferView":28,"byteOffset":0,"componentType":5125,"count":2232,"type":"SCALAR"},{"bufferView":29,"byteOffset":0,"componentType":5126,"count":592,"max":[0.09390000253915787,1.7527999877929688,0.08209999650716782],"min":[-0.09390000253915787,1.6131000518798828,-0.03440000116825104],"type":"VEC3"},{"bufferView":30,"byteOffset":0,"componentType":5126,"count":592,"type":"VEC3"},{"bufferView":31,"byteOffset":0,"componentType":5126,"count":592,"type":"VEC2"},{"bufferView":32,"byteOffset":0,"componentType":5125,"count":79746,"type":"SCALAR"},{"bufferView":33,"byteOffset":0,"componentType":5126,"count":15232,"max":[0.9616000056266785,1.63919997215271,-0.001500000013038516],"min":[-0.9616000056266785,1.420300006866455,-0.20360000431537628],"type":"VEC3"},{"bufferView":34,"byteOffset":0,"componentType":5126,"count":15232,"type":"VEC3"},{"bufferView":35,"byteOffset":0,"componentType":5126,"count":15232,"type":"VEC2"},{"bufferView":36,"byteOffset":0,"componentType":5125,"count":6234,"type":"SCALAR"},{"bufferView":37,"byteOffset":0,"componentType":5126,"count":2063,"max":[0.19519999623298645,1.3839000463485718,0.051899999380111694],"min":[0.01850000023841858,1.1866999864578247,-0.2468000054359436],"type":"VEC3"},{"bufferView":38,"byteOffset":0,"componentType":5126,"count":2063,"type":"VEC3"},{"bufferView":39,"byteOffset":0,"componentType":5126,"count":2063,"type":"VEC2"},{"bufferView":40,"byteOffset":0,"componentType":5125,"count":1632,"type":"SCALAR"},{"bufferView":41,"byteOffset":0,"componentType":5126,"count":341,"max":[0.05490000173449516,1.6723999977111816,0.08209999650716782],"min":[-0.05490000173449516,1.611299991607666,0.004399999976158142],"type":"VEC3"},{"bufferView":42,"byteOffset":0,"componentType":5126,"count":341,"type":"VEC3"},{"bufferView":43,"byteOffset":0,"componentType":5126,"count":341,"type":"VEC2"},{"bufferView":44,"byteOffset":0,"componentType":5125,"count":42,"type":"SCALAR"},{"bufferView":45,"byteOffset":0,"componentType":5126,"count":20,"max":[0.14000000059604645,1.5405000448226929,0.11180000007152557],"min":[-0.14000000059604645,1.496999979019165,-0.19179999828338623],"type":"VEC3"},{"bufferView":46,"byteOffset":0,"componentType":5126,"count":20,"type":"VEC3"},{"bufferView":47,"byteOffset":0,"componentType":5126,"count":20,"type":"VEC2"},{"bufferView":48,"byteOffset":0,"componentType":5125,"count":2820,"type":"SCALAR"},{"bufferView":49,"byteOffset":0,"componentType":5126,"count":646,"max":[0.06911198049783707,1.8049856424331665,0.14267908036708832],"min":[-0.06928002089262009,1.617371678352356,-0.06129591912031174],"type":"VEC3"},{"bufferView":50,"byteOffset":0,"componentType":5126,"count":646,"type":"VEC3"},{"bufferView":51,"byteOffset":0,"componentType":5126,"count":646,"type":"VEC2"},{"bufferView":52,"byteOffset":0,"componentType":5125,"count":5424,"type":"SCALAR"},{"bufferView":53,"byteOffset":0,"componentType":5126,"count":1736,"max":[0.135266974568367,1.8720816373825073,0.14154408872127533],"min":[-0.14276303350925446,1.5803847312927246,-0.16106991469860077],"type":"VEC3"},{"bufferView":54,"byteOffset":0,"componentType":5126,"count":1736,"type":"VEC3"},{"bufferView":55,"byteOffset":0,"componentType":5126,"count":1736,"type":"VEC2"},{"bufferView":56,"byteOffset":0,"componentType":5125,"count":5424,"type":"SCALAR"},{"bufferView":57,"byteOffset":0,"componentType":5126,"count":1736,"max":[0.135266974568367,1.8720816373825073,0.14154408872127533],"min":[-0.14276303350925446,1.5803847312927246,-0.16106991469860077],"type":"VEC3"},{"bufferView":58,"byteOffset":0,"componentType":5126,"count":1736,"type":"VEC3"},{"bufferView":59,"byteOffset":0,"componentType":5126,"count":1736,"type":"VEC2"},{"bufferView":60,"byteOffset":0,"componentType":5125,"count":195,"type":"SCALAR"},{"bufferView":61,"byteOffset":0,"componentType":5126,"count":57,"max":[0.09246797859668732,1.75641667842865,0.13334308564662933],"min":[-0.07571802288293839,1.6425576210021973,-0.0770709216594696],"type":"VEC3"},{"bufferView":62,"byteOffset":0,"componentType":5126,"count":57,"type":"VEC3"},{"bufferView":63,"byteOffset":0,"componentType":5126,"count":57,"type":"VEC2"},{"bufferView":64,"byteOffset":0,"componentType":5125,"count":2472,"type":"SCALAR"},{"bufferView":65,"byteOffset":0,"componentType":5126,"count":1256,"max":[0.08255699276924133,1.7559306621551514,0.16640809178352356],"min":[-0.08257900923490524,1.6194806098937988,0.04553507640957832],"type":"VEC3"},{"bufferView":66,"byteOffset":0,"componentType":5126,"count":1256,"type":"VEC3"},{"bufferView":67,"byteOffset":0,"componentType":5126,"count":1256,"type":"VEC2"},{"bufferView":68,"byteOffset":0,"componentType":5125,"count":66,"type":"SCALAR"},{"bufferView":69,"byteOffset":0,"componentType":5126,"count":22,"max":[0.03615497052669525,1.7321786880493164,0.16228008270263672],"min":[-0.036180030554533005,1.7040226459503174,0.13605909049510956],"type":"VEC3"},{"bufferView":70,"byteOffset":0,"componentType":5126,"count":22,"type":"VEC3"},{"bufferView":71,"byteOffset":0,"componentType":5126,"count":22,"type":"VEC2"},{"bufferView":72,"byteOffset":0,"componentType":5125,"count":6966,"type":"SCALAR"},{"bufferView":73,"byteOffset":0,"componentType":5126,"count":2216,"max":[9.818328857421875,78.24298095703125,2.3603649139404297],"min":[-9.818328857421875,-219.90045166015625,-3.1065235137939453],"type":"VEC3"},{"bufferView":74,"byteOffset":0,"componentType":5126,"count":2216,"type":"VEC3"},{"bufferView":75,"byteOffset":0,"componentType":5126,"count":2216,"type":"VEC2"}],"bufferViews":[{"buffer":0,"byteOffset":0,"byteLength":47616,"target":34963},{"buffer":0,"byteOffset":47616,"byteLength":25716,"target":34962},{"buffer":0,"byteOffset":73332,"byteLength":25716,"target":34962},{"buffer":0,"byteOffset":99048,"byteLength":17144,"target":34962},{"buffer":0,"byteOffset":116192,"byteLength":1584,"target":34963},{"buffer":0,"byteOffset":117776,"byteLength":1224,"target":34962},{"buffer":0,"byteOffset":119000,"byteLength":1224,"target":34962},{"buffer":0,"byteOffset":120224,"byteLength":816,"target":34962},{"buffer":0,"byteOffset":121040,"byteLength":11172,"target":34963},{"buffer":0,"byteOffset":132212,"byteLength":11280,"target":34962},{"buffer":0,"byteOffset":143492,"byteLength":11280,"target":34962},{"buffer":0,"byteOffset":154772,"byteLength":7520,"target":34962},{"buffer":0,"byteOffset":162292,"byteLength":10128,"target":34963},{"buffer":0,"byteOffset":172420,"byteLength":7188,"target":34962},{"buffer":0,"byteOffset":179608,"byteLength":7188,"target":34962},{"buffer":0,"byteOffset":186796,"byteLength":4792,"target":34962},{"buffer":0,"byteOffset":191588,"byteLength":148800,"target":34963},{"buffer":0,"byteOffset":340388,"byteLength":85920,"target":34962},{"buffer":0,"byteOffset":426308,"byteLength":85920,"target":34962},{"buffer":0,"byteOffset":512228,"byteLength":57280,"target":34962},{"buffer":0,"byteOffset":569508,"byteLength":83664,"target":34963},{"buffer":0,"byteOffset":653172,"byteLength":48336,"target":34962},{"buffer":0,"byteOffset":701508,"byteLength":48336,"target":34962},{"buffer":0,"byteOffset":749844,"byteLength":32224,"target":34962},{"buffer":0,"byteOffset":782068,"byteLength":81792,"target":34963},{"buffer":0,"byteOffset":863860,"byteLength":45768,"target":34962},{"buffer":0,"byteOffset":909628,"byteLength":45768,"target":34962},{"buffer":0,"byteOffset":955396,"byteLength":30512,"target":34962},{"buffer":0,"byteOffset":985908,"byteLength":8928,"target":34963},{"buffer":0,"byteOffset":994836,"byteLength":7104,"target":34962},{"buffer":0,"byteOffset":1001940,"byteLength":7104,"target":34962},{"buffer":0,"byteOffset":1009044,"byteLength":4736,"target":34962},{"buffer":0,"byteOffset":1013780,"byteLength":318984,"target":34963},{"buffer":0,"byteOffset":1332764,"byteLength":182784,"target":34962},{"buffer":0,"byteOffset":1515548,"byteLength":182784,"target":34962},{"buffer":0,"byteOffset":1698332,"byteLength":121856,"target":34962},{"buffer":0,"byteOffset":1820188,"byteLength":24936,"target":34963},{"buffer":0,"byteOffset":1845124,"byteLength":24756,"target":34962},{"buffer":0,"byteOffset":1869880,"byteLength":24756,"target":34962},{"buffer":0,"byteOffset":1894636,"byteLength":16504,"target":34962},{"buffer":0,"byteOffset":1911140,"byteLength":6528,"target":34963},{"buffer":0,"byteOffset":1917668,"byteLength":4092,"target":34962},{"buffer":0,"byteOffset":1921760,"byteLength":4092,"target":34962},{"buffer":0,"byteOffset":1925852,"byteLength":2728,"target":34962},{"buffer":0,"byteOffset":1928580,"byteLength":168,"target":34963},{"buffer":0,"byteOffset":1928748,"byteLength":240,"target":34962},{"buffer":0,"byteOffset":1928988,"byteLength":240,"target":34962},{"buffer":0,"byteOffset":1929228,"byteLength":160,"target":34962},{"buffer":0,"byteOffset":1929388,"byteLength":11280,"target":34963},{"buffer":0,"byteOffset":1940668,"byteLength":7752,"target":34962},{"buffer":0,"byteOffset":1948420,"byteLength":7752,"target":34962},{"buffer":0,"byteOffset":1956172,"byteLength":5168,"target":34962},{"buffer":0,"byteOffset":1961340,"byteLength":21696,"target":34963},{"buffer":0,"byteOffset":1983036,"byteLength":20832,"target":34962},{"buffer":0,"byteOffset":2003868,"byteLength":20832,"target":34962},{"buffer":0,"byteOffset":2024700,"byteLength":13888,"target":34962},{"buffer":0,"byteOffset":2038588,"byteLength":21696,"target":34963},{"buffer":0,"byteOffset":2060284,"byteLength":20832,"target":34962},{"buffer":0,"byteOffset":2081116,"byteLength":20832,"target":34962},{"buffer":0,"byteOffset":2101948,"byteLength":13888,"target":34962},{"buffer":0,"byteOffset":2115836,"byteLength":780,"target":34963},{"buffer":0,"byteOffset":2116616,"byteLength":684,"target":34962},{"buffer":0,"byteOffset":2117300,"byteLength":684,"target":34962},{"buffer":0,"byteOffset":2117984,"byteLength":456,"target":34962},{"buffer":0,"byteOffset":2118440,"byteLength":9888,"target":34963},{"buffer":0,"byteOffset":2128328,"byteLength":15072,"target":34962},{"buffer":0,"byteOffset":2143400,"byteLength":15072,"target":34962},{"buffer":0,"byteOffset":2158472,"byteLength":10048,"target":34962},{"buffer":0,"byteOffset":2168520,"byteLength":264,"target":34963},{"buffer":0,"byteOffset":2168784,"byteLength":264,"target":34962},{"buffer":0,"byteOffset":2169048,"byteLength":264,"target":34962},{"buffer":0,"byteOffset":2169312,"byteLength":176,"target":34962},{"buffer":0,"byteOffset":2169488,"byteLength":27864,"target":34963},{"buffer":0,"byteOffset":2197352,"byteLength":26592,"target":34962},{"buffer":0,"byteOffset":2223944,"byteLength":26592,"target":34962},{"buffer":0,"byteOffset":2250536,"byteLength":17728,"target":34962}],"scene":0,"scenes":[{"nodes":[0,1,2,3,4,5,6,7,8,9,10,11,12,13,14,15,16,17,18],"name":"Project Name"}],"extensionsUsed":["KHR_texture_transform"],"buffers":[{"byteLength":2268264,"uri":"ProjectName.bin"}]}